<svg xmlns="http://www.w3.org/2000/svg" viewBox="0 0 45.83 5.1"><path d="M2,0h.91l2,5H3.89L3.41,3.8H1.57L1.06,5.05H0ZM3.21,3.12l-.74-2-.73,2ZM5.53,5.05V0H7.89a2.12,2.12,0,0,1,.68.14,1.68,1.68,0,0,1,.51.4,1.45,1.45,0,0,1,.37.54,1.51,1.51,0,0,1,.11.59,1.55,1.55,0,0,1-.26.88,1.34,1.34,0,0,1-.68.59L9.81,5.05H8.65L7.58,3.37h-1V5.05Zm1-2.53h1.3a1.11,1.11,0,0,0,.25,0,.9.9,0,0,0,.23-.2A.54.54,0,0,0,8.48,2a1,1,0,0,0,.06-.31,1,1,0,0,0-.06-.31,1.48,1.48,0,0,0-.17-.28A1,1,0,0,0,8.09.94.83.83,0,0,0,7.8.88H6.56ZM14.38.88h-1.7V5.05h-1V.88H10V0h4.42Zm2,1.64a2.48,2.48,0,0,1,.17-.9A2.86,2.86,0,0,1,17,.79a2.73,2.73,0,0,1,.8-.56A2.62,2.62,0,0,1,18.91,0,2.29,2.29,0,0,1,20.1.31a1.91,1.91,0,0,1,.77.8l-.34.17a2.31,2.31,0,0,0-.31-.46,3.49,3.49,0,0,0-.43-.28A2,2,0,0,0,19.34.4a1.24,1.24,0,0,0-.45-.06,1.88,1.88,0,0,0-.91.2,1.55,1.55,0,0,0-.65.51,2,2,0,0,0-.43.68,2.83,2.83,0,0,0-.11.79,2.11,2.11,0,0,0,.14.85,1.92,1.92,0,0,0,.45.71,2.38,2.38,0,0,0,.68.51,2,2,0,0,0,.83.17,1.77,1.77,0,0,0,.51,0,1.84,1.84,0,0,0,.48-.17,2,2,0,0,0,.42-.32,1.06,1.06,0,0,0,.34-.45l.31.17a2.16,2.16,0,0,1-.34.51,3.87,3.87,0,0,1-.53.37,2,2,0,0,1-.6.2,2.64,2.64,0,0,1-.62.08,2.4,2.4,0,0,1-1-.22,2.05,2.05,0,0,1-.76-.6,2.18,2.18,0,0,1-.51-.82A2.27,2.27,0,0,1,16.39,2.52ZM23.51,0h.31l2.24,5h-.4L24.92,3.4H22.4l-.74,1.65h-.42Zm1.3,3.09L23.68.48,22.49,3.12Zm2.07,1.93V0h2.18a1.4,1.4,0,0,1,.6.14,2,2,0,0,1,.51.34,2.78,2.78,0,0,1,.31.51,1.44,1.44,0,0,1,.11.57,1.54,1.54,0,0,1-.11.59,1.74,1.74,0,0,1-.31.51,1.41,1.41,0,0,1-.46.34,1.44,1.44,0,0,1-.62.14H27.25V5.05Zm.37-2.22h1.84a.77.77,0,0,0,.45-.11,1.25,1.25,0,0,0,.37-.28,1.4,1.4,0,0,0,.23-.4,2.06,2.06,0,0,0,.05-.45,1.34,1.34,0,0,0-.08-.48,1,1,0,0,0-.26-.37,1.1,1.1,0,0,0-.36-.29A1.39,1.39,0,0,0,29,.37H27.25ZM31.5,5.05V0h.4v5ZM37,.37H35V5.05h-.39V.37H32.72V0H37Zm2-.34h.34l2.23,5h-.39L40.37,3.4H37.82l-.74,1.65h-.39Zm1.33,3.09L39.1.48,37.93,3.12Zm2,1.93V0h.4v4.7h3.14v.32Z" transform="translate(-0.01)" fill="#b4ff00"/></svg>