<svg xmlns="http://www.w3.org/2000/svg" viewBox="0 0 188.75 21"><path d="M9.52.12h3.74l8.28,20.65H17.11l-2-5.14H7.54l-2,5.14H1.12L9.52.12Zm4.79,12.71L11.39,4.67,8.24,12.83h6.07Zm9.56,7.94V.12h9.68a5.72,5.72,0,0,1,2.8.58,9.42,9.42,0,0,1,2.22,1.52A8.93,8.93,0,0,1,40,4.44,6.24,6.24,0,0,1,40.44,7a6.84,6.84,0,0,1-1,3.62A6.07,6.07,0,0,1,36.59,13l4.9,7.82H36.82l-4.55-6.88H28.19v6.88Zm4.32-10.5h5.25A1.6,1.6,0,0,0,34.49,10a2.74,2.74,0,0,0,.93-.71A4.58,4.58,0,0,0,36,8.28,4.74,4.74,0,0,0,36.24,7,4.93,4.93,0,0,0,36,5.6a7.08,7.08,0,0,0-.7-1,1.81,1.81,0,0,0-.93-.7,1.75,1.75,0,0,0-1-.23H28.19v6.65ZM60.27,3.62h-7V20.77h-4.2V3.62H42.19V.12H60.27v3.5Zm8.28,6.65a10.53,10.53,0,0,1,.7-3.74,11.7,11.7,0,0,1,2-3.26A11.4,11.4,0,0,1,74.5.82,10.63,10.63,0,0,1,78.94,0a9.19,9.19,0,0,1,4.89,1.17A9.3,9.3,0,0,1,87,4.43l-1.28.7a11,11,0,0,0-1.4-1.74,4.57,4.57,0,0,0-1.75-1.17,5,5,0,0,0-1.86-.7,10.08,10.08,0,0,0-1.88-.24,9.22,9.22,0,0,0-3.73.82A9.8,9.8,0,0,0,72.4,4.2a8.82,8.82,0,0,0-1.63,2.92,7.68,7.68,0,0,0-.59,3.26,9.55,9.55,0,0,0,.7,3.51,9.15,9.15,0,0,0,1.75,2.91,9.48,9.48,0,0,0,2.8,2,7.09,7.09,0,0,0,3.5.81,13.83,13.83,0,0,0,2-.23c.7-.24,1.4-.47,2-.7a9.76,9.76,0,0,0,1.75-1.29,7.11,7.11,0,0,0,1.4-1.86l1.4.58a6.75,6.75,0,0,1-1.52,2.1,11.21,11.21,0,0,1-2.1,1.52,9.66,9.66,0,0,1-2.56.93A8.92,8.92,0,0,1,78.7,21a10,10,0,0,1-4.08-.93,16.2,16.2,0,0,1-3.15-2.45,10.58,10.58,0,0,1-2.1-3.5,9.09,9.09,0,0,1-.82-3.85ZM97.83.12h1.4l9.22,20.65H106.7l-3-6.77H93.28l-3,6.77H88.5L97.83.12Zm5.48,12.6L98.53,1.87l-4.9,10.85h9.68Zm8.4,8V.12h9a6.08,6.08,0,0,1,2.56.47,7.93,7.93,0,0,1,2,1.51,5,5,0,0,1,1.28,2.1A5.24,5.24,0,0,1,127,6.54a5.23,5.23,0,0,1-.47,2.33,6,6,0,0,1-1.17,2.1,7.67,7.67,0,0,1-2,1.4,6.36,6.36,0,0,1-2.57.58h-7.58v7.82Zm1.52-9.22h7.58a4.52,4.52,0,0,0,1.87-.35A5.4,5.4,0,0,0,124.2,10a7.5,7.5,0,0,0,.93-1.64,5.34,5.34,0,0,0,.35-1.87,3.82,3.82,0,0,0-.47-2A4.84,4.84,0,0,0,124,2.92a3.49,3.49,0,0,0-1.51-1,3.43,3.43,0,0,0-1.87-.47h-7.35V11.55Zm17.5,9.22V.12h1.63V20.77ZM153.24,1.4h-7.93V20.77H143.8V1.4h-8.05V.12h17.49ZM161.41.12h1.28l9.22,20.65h-1.63l-3-6.77H156.86l-3,6.77h-1.75L161.41.12Zm5.37,12.6L162,1.87l-4.79,10.85Zm8.51,8V.12h1.52V19.48h13.07v1.29Z" transform="translate(-1.12 0)" fill="#fff"/></svg>