<svg xmlns="http://www.w3.org/2000/svg" width="106.48" height="106.48" viewBox="0 0 106.48 106.48" fill="#d7d7d7" ><path d="M53.24,0A53.23,53.23,0,1,1,15.59,15.59,53.05,53.05,0,0,1,53.24,0ZM90.75,15.76a53,53,0,1,0,15.53,37.48A52.83,52.83,0,0,0,90.75,15.76Z" transform="translate(0)"/><path d="M106.28.23H.23V106.28H106.28ZM.11,0H106.48V106.48H0V0Z" transform="translate(0)"/><path d="M90.72,15.79H15.79V90.72H90.72Zm-75-.23H90.92V90.92H15.56V15.56Z" transform="translate(0)"/><path d="M53.24,32.38a5,5,0,0,1,2.33.59v-7.2a.41.41,0,0,0-.12-.28.47.47,0,0,0-.28-.12H51.31a.33.33,0,0,0-.25.12.31.31,0,0,0-.12.28V33A4.85,4.85,0,0,1,53.24,32.38ZM70.59,78.7l.91,2.49-.2.06-.91-2.47a4.2,4.2,0,0,1-1.25.2,3.72,3.72,0,0,1-2.69-1.13,3.89,3.89,0,0,1-.4-4.94L60.64,58.29H55.85v1.1a.61.61,0,0,1-.17.43.6.6,0,0,1-.43.17h-4a.6.6,0,0,1-.43-.17.64.64,0,0,1-.2-.43v-1.1H45.87L40.43,72.91a3.82,3.82,0,0,1,.73,2.24A3.86,3.86,0,0,1,37.34,79a4,4,0,0,1-1.22-.2l-.94,2.47-.2-.06.94-2.49a3.63,3.63,0,0,1-1.28-.85,3.73,3.73,0,0,1-1.13-2.7,3.84,3.84,0,0,1,1.13-2.72,3.65,3.65,0,0,1,1.79-1l4.88-13.15H36.68a2.13,2.13,0,0,1-.62,1.39,2.13,2.13,0,0,1-3.06,0,2,2,0,0,1-.62-1.51A2.14,2.14,0,0,1,33,56.64a2.2,2.2,0,0,1,3.06,0,2.21,2.21,0,0,1,.62,1.42h4.71l3.29-8.87a21.51,21.51,0,0,1-6.52-4.45,21.26,21.26,0,0,1-6.24-15.09h.2a21,21,0,0,0,6.21,14.92A21.31,21.31,0,0,0,44.76,49l3.83-10.38a5.62,5.62,0,0,1-.2-1.39,4.85,4.85,0,0,1,1.42-3.43,5.83,5.83,0,0,1,.91-.71V25.77a.53.53,0,0,1,.17-.43.57.57,0,0,1,.42-.17h3.86a.57.57,0,0,1,.42.17.53.53,0,0,1,.17.43v7.31a4.7,4.7,0,0,1,.91.71,4.85,4.85,0,0,1,1.42,3.43,4.49,4.49,0,0,1-.2,1.39L61.75,49a21.56,21.56,0,0,0,6.43-4.42,21,21,0,0,0,6.18-14.92h.23a21.28,21.28,0,0,1-6.27,15.09,20.8,20.8,0,0,1-6.52,4.45l3.29,8.87h4.73a2.13,2.13,0,0,1,.63-1.42A2.16,2.16,0,0,1,72,56a2.06,2.06,0,0,1,1.5.62,2.16,2.16,0,0,1,.65,1.53,2.05,2.05,0,0,1-.65,1.51,2.08,2.08,0,0,1-1.5.65,2.19,2.19,0,0,1-1.53-.65,2.05,2.05,0,0,1-.63-1.39H65.18l4.87,13.15a3.62,3.62,0,0,1,1.82,1A4,4,0,0,1,73,75.15a3.83,3.83,0,0,1-1.1,2.7A3.92,3.92,0,0,1,70.59,78.7ZM55.85,58.06h4.7l-2.8-7.57a21.49,21.49,0,0,1-4.51.48,21.93,21.93,0,0,1-4.51-.48L46,58.06h4.68V56.93a.62.62,0,0,1,.2-.43.6.6,0,0,1,.43-.17h4a.58.58,0,0,1,.6.6ZM72,56.22a1.93,1.93,0,0,0-2,2,1.93,1.93,0,0,0,.57,1.36A2.06,2.06,0,0,0,72,60.1a1.95,1.95,0,0,0,1.93-1.93,2.06,2.06,0,0,0-.57-1.39A1.92,1.92,0,0,0,72,56.22Zm-16.73.34h-4a.35.35,0,0,0-.29.11.47.47,0,0,0-.11.26v2.46a.57.57,0,0,0,.11.29.48.48,0,0,0,.29.11h4a.38.38,0,0,0,.37-.4V56.93a.33.33,0,0,0-.11-.26A.29.29,0,0,0,55.25,56.56Zm-19.36.22a1.92,1.92,0,0,0-1.36-.56,1.93,1.93,0,0,0-2,2,1.93,1.93,0,0,0,.57,1.36,2.06,2.06,0,0,0,1.39.57,1.93,1.93,0,0,0,1.36-.57,1.81,1.81,0,0,0,.57-1.36A1.93,1.93,0,0,0,35.89,56.78ZM45,49.07a19.35,19.35,0,0,0,3.66,1.19l3.12-8.44a4.67,4.67,0,0,1-1.93-1.17A5.21,5.21,0,0,1,48.7,39Zm3.86,1.22a20.85,20.85,0,0,0,4.42.48,20.57,20.57,0,0,0,4.42-.48L54.54,41.9a4.92,4.92,0,0,1-1.3.17,5.09,5.09,0,0,1-1.3-.17Zm9.07,0a20.85,20.85,0,0,0,3.66-1.19L57.78,39a5.21,5.21,0,0,1-1.11,1.7,4.77,4.77,0,0,1-1.9,1.17Zm3.71-1A19.48,19.48,0,0,1,58,50.46L66.2,72.72l.25-.29a3.82,3.82,0,0,1,2.69-1.1,6.57,6.57,0,0,1,.66,0ZM48.53,50.46a19.48,19.48,0,0,1-3.65-1.19l-8.2,22.11c.23,0,.43,0,.66,0A3.8,3.8,0,0,1,40,72.43l.25.29Zm20.61,23.7a1,1,0,0,1,.71.29,1,1,0,0,1,.29.7,1,1,0,0,1-.29.68,1,1,0,0,1-1.39,0,1,1,0,0,1-.28-.68,1,1,0,0,1,.28-.7A1,1,0,0,1,69.14,74.16Zm.54.46a.65.65,0,0,0-.54-.23.74.74,0,0,0-.53.23.79.79,0,0,0-.2.53.85.85,0,0,0,.2.54.78.78,0,0,0,.53.23.68.68,0,0,0,.54-.23.78.78,0,0,0,.23-.54A.72.72,0,0,0,69.68,74.62Zm-.54-3.09a3.61,3.61,0,1,0,0,7.22,3.57,3.57,0,0,0,2.56-1,3.59,3.59,0,0,0,0-5.11A3.59,3.59,0,0,0,69.14,71.53Zm-31.8,2.63a1,1,0,0,1,.68.29.91.91,0,0,1,.28.7.86.86,0,0,1-.28.68,1,1,0,0,1-.68.29.93.93,0,0,1-.68-.29.9.9,0,0,1-.32-.68.94.94,0,0,1,.32-.7A.93.93,0,0,1,37.34,74.16Zm.54.46a.78.78,0,0,0-.54-.23.74.74,0,0,0-.54.23.72.72,0,0,0-.23.53.79.79,0,0,0,.77.77.82.82,0,0,0,.54-.23.77.77,0,0,0,.22-.54A.72.72,0,0,0,37.88,74.62Zm2-2a3.63,3.63,0,1,0,1,2.55A3.62,3.62,0,0,0,39.89,72.6ZM53.24,36a1.28,1.28,0,0,1,.88.37,1.23,1.23,0,0,1,0,1.7,1.24,1.24,0,0,1-.88.37,1.17,1.17,0,0,1-.85-.37,1.16,1.16,0,0,1,0-1.7A1.21,1.21,0,0,1,53.24,36Zm.71.51a1,1,0,0,0-.71-.28,1.07,1.07,0,0,0-.71.28,1,1,0,0,0-.28.71,1,1,0,0,0,.28.71,1.08,1.08,0,0,0,.71.29,1,1,0,0,0,.71-.29.91.91,0,0,0,.31-.71A.92.92,0,0,0,54,36.51Zm2.58-2.58a4.73,4.73,0,0,0-3.29-1.33,4.59,4.59,0,0,0-4.62,4.62,4.64,4.64,0,0,0,4.62,4.62,4.64,4.64,0,0,0,4.65-4.62A4.77,4.77,0,0,0,56.53,33.93Z" transform="translate(0)"/></svg>