<svg width="0" height="0" class="hidden">
  <symbol xmlns="http://www.w3.org/2000/svg" viewBox="0 0 4.36 4.36" id="ic_arrow_link">
    <polygon points="3.62 0 3.62 3.11 0.51 0 0 0.51 3.11 3.62 0 3.62 0 4.36 4.36 4.36 4.36 0 3.62 0" fill="currentColor" fill-rule="evenodd"></polygon>
  </symbol>
  <symbol xmlns="http://www.w3.org/2000/svg" viewBox="0 0 8.87 9.24" id="ic_slider_arrow">
    <polygon points="5.13 0.51 1.39 4.25 8.87 4.25 8.87 4.99 1.39 4.99 5.13 8.73 4.62 9.24 0 4.62 4.62 0 5.13 0.51" fill="currentColor" fill-rule="evenodd"></polygon>
  </symbol>
  <symbol xmlns="http://www.w3.org/2000/svg" viewBox="0 0 71.75 71.75" id="ic_success">
    <path d="M35.89,0A35.92,35.92,0,1,1,10.52,10.52,35.74,35.74,0,0,1,35.89,0Zm25.2,10.66A35.62,35.62,0,1,0,71.55,35.89,35.5,35.5,0,0,0,61.09,10.66Z" transform="translate(0)" fill="currentColor"></path>
    <polygon points="21.86 31.5 35.89 45.5 55.36 26.02 55.53 26.16 35.89 45.81 21.69 31.64 21.86 31.5" fill="currentColor"></polygon>
  </symbol>
</svg>